<svg width="323" height="210" viewBox="0 0 323 210" fill="none" xmlns="http://www.w3.org/2000/svg">
<path d="M321.7 0.5H0.5V208.86H321.7V0.5Z" fill="#236AF4"/>
<path d="M164.1 74.6801C167.183 72.7389 170.854 71.9521 174.462 72.4592C178.07 72.9662 181.381 74.7343 183.81 77.4501C185.97 80.0201 187.91 83.6901 191.27 83.6301C194.13 83.6301 196.52 80.6301 199.34 81.1401C202.34 81.7001 203.25 85.6301 205.71 87.4401C209.36 90.1301 214.94 87.2901 218.9 89.4901C199.101 92.6724 179.083 94.2974 159.03 94.3501C156.678 94.5155 154.319 94.1745 152.11 93.3501C149.97 92.3501 148.19 90.2201 148.43 87.8801C148.607 86.74 149.056 85.6594 149.74 84.7301C152.645 80.4785 156.825 77.2585 161.677 75.5334C166.529 73.8082 171.803 73.667 176.74 75.1301" fill="white"/>
<path d="M321.7 15.8101V52.4101C319.07 52.2001 316.45 52.0301 313.83 51.9201C299.51 51.3001 285.17 52.3101 270.83 53.3201L216.4 57.1801C223.777 56.1439 230.727 53.0996 236.49 48.3801C238.31 46.8801 240.04 45.1901 242.21 44.2901C246.93 42.2901 252.21 44.4801 257.29 45.1801C261.363 45.7015 265.501 45.2623 269.373 43.8974C273.245 42.5325 276.744 40.28 279.59 37.3201C282.34 34.4201 284.71 30.6701 288.59 29.6801C295.45 27.9301 303.96 35.5901 308.9 30.5201C312.17 27.1601 310.32 20.7001 313.9 17.6801C315.99 15.9301 318.95 16.1601 321.7 15.8101Z" fill="white"/>
<path d="M149.06 28.29H180.86L189.36 206.8H140.55L149.06 28.29Z" fill="#231F20"/>
<path d="M189.36 207.33H140.55C140.407 207.328 140.271 207.271 140.17 207.17C140.121 207.118 140.084 207.057 140.059 206.99C140.035 206.922 140.025 206.851 140.03 206.78L148.53 28.27C148.535 28.1329 148.593 28.0032 148.692 27.9081C148.791 27.813 148.923 27.7599 149.06 27.76H180.86C180.995 27.7625 181.125 27.8167 181.221 27.9115C181.318 28.0064 181.375 28.1346 181.38 28.27L189.88 206.78C189.885 206.851 189.875 206.922 189.85 206.99C189.826 207.057 189.789 207.118 189.74 207.17C189.639 207.271 189.503 207.328 189.36 207.33ZM141.1 206.27H188.8L180.35 28.82H149.56L141.1 206.27Z" fill="#231F20"/>
<path d="M321.7 147.86H262.76V208.86H321.7V147.86Z" fill="#231F20"/>
<path d="M321.7 209.39H262.76C262.619 209.39 262.485 209.334 262.385 209.235C262.286 209.135 262.23 209.001 262.23 208.86V147.86C262.23 147.72 262.286 147.585 262.385 147.485C262.485 147.386 262.619 147.33 262.76 147.33H321.7C321.841 147.33 321.975 147.386 322.075 147.485C322.174 147.585 322.23 147.72 322.23 147.86V208.86C322.23 209.001 322.174 209.135 322.075 209.235C321.975 209.334 321.841 209.39 321.7 209.39ZM263.28 208.33H321.17V148.33H263.28V208.33Z" fill="#231F20"/>
<path d="M267.44 99.4301H240.79V208.86H267.44V99.4301Z" fill="#231F20"/>
<path d="M267.44 209.39H240.79C240.649 209.39 240.515 209.334 240.415 209.235C240.316 209.135 240.26 209.001 240.26 208.86V99.43C240.26 99.3609 240.274 99.2924 240.301 99.2287C240.327 99.1649 240.366 99.1072 240.416 99.0587C240.465 99.0103 240.524 98.9722 240.588 98.9467C240.652 98.9212 240.721 98.9087 240.79 98.91H267.44C267.509 98.9087 267.578 98.9212 267.642 98.9467C267.706 98.9722 267.765 99.0103 267.814 99.0587C267.864 99.1072 267.903 99.1649 267.929 99.2287C267.956 99.2924 267.97 99.3609 267.97 99.43V208.86C267.97 209.001 267.914 209.135 267.815 209.235C267.715 209.334 267.581 209.39 267.44 209.39ZM241.32 208.33H266.92V99.96H241.32V208.33Z" fill="#231F20"/>
<path d="M265.85 72H256.84V76.43H265.85V72Z" fill="white"/>
<path d="M265.85 76.94H256.85C256.717 76.94 256.59 76.8873 256.496 76.7936C256.403 76.6998 256.35 76.5726 256.35 76.44V72C256.35 71.8674 256.403 71.7402 256.496 71.6464C256.59 71.5527 256.717 71.5 256.85 71.5H265.85C265.983 71.5 266.11 71.5527 266.204 71.6464C266.297 71.7402 266.35 71.8674 266.35 72V76.44C266.35 76.5726 266.297 76.6998 266.204 76.7936C266.11 76.8873 265.983 76.94 265.85 76.94ZM257.34 75.94H265.34V72.5H257.34V75.94Z" fill="#231F20"/>
<path d="M256.84 69.26H249.24V76.86H256.84V69.26Z" fill="white"/>
<path d="M256.84 77.36H249.24C249.107 77.36 248.98 77.3073 248.886 77.2136C248.793 77.1198 248.74 76.9926 248.74 76.86V69.26C248.74 69.1274 248.793 69.0002 248.886 68.9065C248.98 68.8127 249.107 68.76 249.24 68.76H256.84C256.973 68.76 257.1 68.8127 257.194 68.9065C257.287 69.0002 257.34 69.1274 257.34 69.26V76.86C257.34 76.9926 257.287 77.1198 257.194 77.2136C257.1 77.3073 256.973 77.36 256.84 77.36ZM249.74 76.36H256.34V69.76H249.74V76.36Z" fill="#231F20"/>
<path d="M253.04 62.78L249.24 69.26H256.84L253.04 62.78Z" fill="white"/>
<path d="M256.84 69.7601H249.24C249.151 69.7593 249.065 69.736 248.988 69.6922C248.911 69.6485 248.846 69.5858 248.8 69.5101C248.756 69.4341 248.733 69.3479 248.733 69.2601C248.733 69.1723 248.756 69.0861 248.8 69.0101L252.6 62.5301C252.646 62.4578 252.71 62.3983 252.785 62.3571C252.86 62.3159 252.944 62.2943 253.03 62.2943C253.116 62.2943 253.2 62.3159 253.275 62.3571C253.35 62.3983 253.414 62.4578 253.46 62.5301L257.26 69.0101C257.304 69.0861 257.327 69.1723 257.327 69.2601C257.327 69.3479 257.304 69.4341 257.26 69.5101C257.217 69.5842 257.156 69.6461 257.083 69.6899C257.009 69.7337 256.926 69.7578 256.84 69.7601ZM250.11 68.7601H255.97L253.04 63.7601L250.11 68.7601Z" fill="#231F20"/>
<path d="M273.45 69.26H265.85V76.86H273.45V69.26Z" fill="white"/>
<path d="M273.45 77.36H265.85C265.717 77.36 265.59 77.3073 265.496 77.2136C265.403 77.1198 265.35 76.9926 265.35 76.86V69.26C265.35 69.1274 265.403 69.0002 265.496 68.9065C265.59 68.8127 265.717 68.76 265.85 68.76H273.45C273.583 68.76 273.71 68.8127 273.804 68.9065C273.897 69.0002 273.95 69.1274 273.95 69.26V76.86C273.95 76.9926 273.897 77.1198 273.804 77.2136C273.71 77.3073 273.583 77.36 273.45 77.36ZM266.35 76.36H272.95V69.76H266.35V76.36Z" fill="#231F20"/>
<path d="M232.35 97.5601H225.59V142.89H232.35V97.5601Z" fill="#231F20"/>
<path d="M232.34 143.41H225.59C225.521 143.411 225.452 143.399 225.388 143.373C225.324 143.348 225.265 143.31 225.216 143.261C225.166 143.213 225.127 143.155 225.101 143.091C225.074 143.028 225.06 142.959 225.06 142.89V97.56C225.059 97.49 225.071 97.4205 225.098 97.3556C225.124 97.2907 225.163 97.2317 225.212 97.1822C225.262 97.1327 225.321 97.0937 225.386 97.0676C225.45 97.0414 225.52 97.0286 225.59 97.03H232.34C232.481 97.03 232.615 97.0858 232.715 97.1852C232.814 97.2846 232.87 97.4194 232.87 97.56V142.89C232.87 142.959 232.856 143.028 232.829 143.091C232.803 143.155 232.763 143.213 232.714 143.261C232.665 143.31 232.606 143.348 232.542 143.373C232.478 143.399 232.409 143.411 232.34 143.41ZM226.11 142.41H231.82V98.08H226.1L226.11 142.41Z" fill="#231F20"/>
<path d="M243.04 136.69H221.64V208.86H243.04V136.69Z" fill="white"/>
<path d="M243.04 209.36H221.64C221.507 209.36 221.38 209.307 221.286 209.214C221.193 209.12 221.14 208.993 221.14 208.86V136.68C221.143 136.548 221.196 136.423 221.289 136.329C221.382 136.236 221.508 136.183 221.64 136.18H243.04C243.173 136.18 243.3 136.233 243.394 136.327C243.487 136.42 243.54 136.547 243.54 136.68V208.85C243.541 208.917 243.529 208.983 243.505 209.044C243.48 209.106 243.444 209.163 243.397 209.21C243.351 209.258 243.295 209.295 243.234 209.321C243.172 209.347 243.107 209.36 243.04 209.36ZM222.14 208.36H242.54V137.19H222.1L222.14 208.36Z" fill="#231F20"/>
<path d="M221.64 158.09C223.656 158.09 225.589 158.891 227.014 160.316C228.439 161.741 229.24 163.674 229.24 165.69V208.86H214.04V165.68C214.043 163.666 214.845 161.736 216.27 160.313C217.694 158.889 219.626 158.09 221.64 158.09Z" fill="white"/>
<path d="M229.25 209.36H214.04C213.907 209.36 213.78 209.307 213.686 209.214C213.593 209.12 213.54 208.993 213.54 208.86V165.68C213.614 163.58 214.5 161.59 216.012 160.13C217.524 158.671 219.543 157.855 221.645 157.855C223.747 157.855 225.766 158.671 227.278 160.13C228.79 161.59 229.676 163.58 229.75 165.68V208.85C229.751 208.917 229.739 208.983 229.715 209.045C229.69 209.106 229.654 209.163 229.607 209.21C229.561 209.258 229.505 209.295 229.444 209.321C229.382 209.347 229.316 209.36 229.25 209.36ZM214.54 208.36H228.75V165.68C228.681 163.842 227.902 162.102 226.577 160.826C225.252 159.55 223.485 158.837 221.645 158.837C219.805 158.837 218.038 159.55 216.713 160.826C215.388 162.102 214.609 163.842 214.54 165.68V208.36Z" fill="#231F20"/>
<path d="M205.41 136.97V132.56H200.62V130.97H194.71V120.07H195.73V116.98H192.64V120.07H193.21V130.97H188.79V132.56H183.26V136.97H180.72V173.77H207.94V136.97H205.41Z" fill="white"/>
<path d="M207.94 174.26H180.72C180.587 174.26 180.46 174.207 180.366 174.114C180.273 174.02 180.22 173.893 180.22 173.76V136.97C180.223 136.838 180.276 136.713 180.369 136.619C180.462 136.526 180.588 136.473 180.72 136.47H182.72V132.56C182.72 132.427 182.773 132.3 182.866 132.207C182.96 132.113 183.087 132.06 183.22 132.06H188.22V130.97C188.22 130.837 188.273 130.71 188.366 130.617C188.46 130.523 188.587 130.47 188.72 130.47H192.63V120.57H192.56C192.427 120.57 192.3 120.517 192.206 120.424C192.113 120.33 192.06 120.203 192.06 120.07V116.98C192.063 116.848 192.116 116.723 192.209 116.629C192.302 116.536 192.428 116.483 192.56 116.48H195.65C195.783 116.48 195.91 116.533 196.004 116.627C196.097 116.72 196.15 116.847 196.15 116.98V120.07C196.15 120.203 196.097 120.33 196.004 120.424C195.91 120.517 195.783 120.57 195.65 120.57H195.13V130.47H200.54C200.673 130.47 200.8 130.523 200.894 130.617C200.987 130.71 201.04 130.837 201.04 130.97V132.06H205.33C205.462 132.063 205.587 132.116 205.681 132.209C205.774 132.303 205.827 132.428 205.83 132.56V136.47H207.83C207.963 136.47 208.09 136.523 208.184 136.617C208.277 136.71 208.33 136.837 208.33 136.97V173.76C208.333 173.876 208.295 173.989 208.224 174.08C208.153 174.171 208.053 174.235 207.94 174.26ZM181.22 173.26H207.44V137.47H205.44C205.307 137.47 205.18 137.417 205.086 137.324C204.993 137.23 204.94 137.103 204.94 136.97V133.06H200.65C200.517 133.06 200.39 133.007 200.296 132.914C200.203 132.82 200.15 132.693 200.15 132.56V131.47H194.74C194.607 131.47 194.48 131.417 194.386 131.324C194.293 131.23 194.24 131.103 194.24 130.97V120.07C194.24 119.937 194.293 119.81 194.386 119.717C194.48 119.623 194.607 119.57 194.74 119.57H195.26V117.48H193.1V119.57H193.17C193.302 119.573 193.427 119.626 193.521 119.719C193.614 119.813 193.667 119.938 193.67 120.07V130.97C193.667 131.102 193.614 131.228 193.521 131.321C193.427 131.414 193.302 131.468 193.17 131.47H189.3V132.56C189.3 132.693 189.247 132.82 189.154 132.914C189.06 133.007 188.933 133.06 188.8 133.06H183.8V136.97C183.8 137.103 183.747 137.23 183.654 137.324C183.56 137.417 183.433 137.47 183.3 137.47H181.3L181.22 173.26Z" fill="#231F20"/>
<path d="M211.31 170.67H177.34V186.74H211.31V170.67Z" fill="white"/>
<path d="M211.32 187.24H177.32C177.187 187.24 177.06 187.187 176.966 187.094C176.873 187 176.82 186.873 176.82 186.74V170.68C176.82 170.547 176.873 170.42 176.966 170.327C177.06 170.233 177.187 170.18 177.32 170.18H211.32C211.453 170.18 211.58 170.233 211.673 170.327C211.767 170.42 211.82 170.547 211.82 170.68V186.75C211.817 186.881 211.763 187.006 211.67 187.097C211.577 187.189 211.451 187.24 211.32 187.24ZM177.85 186.24H210.85V171.17H177.85V186.24Z" fill="#231F20"/>
<path d="M215.63 180.24H170.21V200.04H215.63V180.24Z" fill="white"/>
<path d="M215.64 200.54H170.21C170.077 200.54 169.95 200.487 169.856 200.394C169.763 200.3 169.71 200.173 169.71 200.04V180.24C169.71 180.108 169.763 179.98 169.856 179.887C169.95 179.793 170.077 179.74 170.21 179.74H215.64C215.773 179.74 215.9 179.793 215.994 179.887C216.087 179.98 216.14 180.108 216.14 180.24V200.04C216.14 200.106 216.127 200.171 216.102 200.231C216.077 200.292 216.04 200.347 215.994 200.394C215.947 200.44 215.892 200.477 215.831 200.502C215.771 200.527 215.706 200.54 215.64 200.54ZM170.71 199.54H215.1V180.74H170.71V199.54Z" fill="#231F20"/>
<path d="M164.2 208.86V192.91H183.35V188.41H205.69V193.1H224.46V208.86H164.2Z" fill="white"/>
<path d="M224.46 209.36H164.21C164.077 209.36 163.95 209.307 163.856 209.214C163.763 209.12 163.71 208.993 163.71 208.86V192.86C163.71 192.727 163.763 192.6 163.856 192.506C163.95 192.413 164.077 192.36 164.21 192.36H182.85V188.36C182.85 188.227 182.903 188.1 182.996 188.006C183.09 187.913 183.217 187.86 183.35 187.86H205.69C205.823 187.86 205.95 187.913 206.044 188.006C206.137 188.1 206.19 188.227 206.19 188.36V192.55H224.46C224.593 192.55 224.72 192.603 224.814 192.696C224.907 192.79 224.96 192.917 224.96 193.05V208.81C224.967 208.88 224.959 208.95 224.937 209.017C224.915 209.083 224.88 209.144 224.832 209.196C224.785 209.248 224.728 209.29 224.664 209.318C224.599 209.346 224.53 209.36 224.46 209.36ZM164.71 208.36H223.96V193.6H205.69C205.557 193.6 205.43 193.547 205.336 193.454C205.243 193.36 205.19 193.233 205.19 193.1V188.91H183.85V192.91C183.85 193.043 183.797 193.17 183.704 193.264C183.61 193.357 183.483 193.41 183.35 193.41H164.71V208.36Z" fill="#231F20"/>
<path d="M143.37 80.38H101.42V208.86H143.37V80.38Z" fill="white"/>
<path d="M143.37 209.36H101.37C101.237 209.36 101.11 209.307 101.016 209.214C100.923 209.12 100.87 208.993 100.87 208.86V80.38C100.87 80.2474 100.923 80.1202 101.016 80.0265C101.11 79.9327 101.237 79.88 101.37 79.88H143.37C143.503 79.88 143.63 79.9327 143.724 80.0265C143.817 80.1202 143.87 80.2474 143.87 80.38V208.86C143.87 208.993 143.817 209.12 143.724 209.214C143.63 209.307 143.503 209.36 143.37 209.36ZM101.92 208.36H142.92V80.88H101.92V208.36Z" fill="#231F20"/>
<path d="M138.3 147.23H105.64C105.507 147.23 105.38 147.177 105.286 147.084C105.193 146.99 105.14 146.863 105.14 146.73C105.14 146.597 105.193 146.47 105.286 146.377C105.38 146.283 105.507 146.23 105.64 146.23H138.3C138.433 146.23 138.56 146.283 138.654 146.377C138.747 146.47 138.8 146.597 138.8 146.73C138.8 146.863 138.747 146.99 138.654 147.084C138.56 147.177 138.433 147.23 138.3 147.23Z" fill="#D1D3D4"/>
<path d="M138.3 152.02H105.64C105.507 152.02 105.38 151.967 105.286 151.874C105.193 151.78 105.14 151.653 105.14 151.52C105.14 151.387 105.193 151.26 105.286 151.166C105.38 151.073 105.507 151.02 105.64 151.02H138.3C138.433 151.02 138.56 151.073 138.654 151.166C138.747 151.26 138.8 151.387 138.8 151.52C138.8 151.653 138.747 151.78 138.654 151.874C138.56 151.967 138.433 152.02 138.3 152.02Z" fill="#D1D3D4"/>
<path d="M138.3 156.81H105.64C105.507 156.81 105.38 156.757 105.286 156.664C105.193 156.57 105.14 156.443 105.14 156.31C105.14 156.177 105.193 156.05 105.286 155.956C105.38 155.863 105.507 155.81 105.64 155.81H138.3C138.433 155.81 138.56 155.863 138.654 155.956C138.747 156.05 138.8 156.177 138.8 156.31C138.8 156.443 138.747 156.57 138.654 156.664C138.56 156.757 138.433 156.81 138.3 156.81Z" fill="#D1D3D4"/>
<path d="M138.3 161.59H105.64C105.507 161.59 105.38 161.537 105.286 161.444C105.193 161.35 105.14 161.223 105.14 161.09C105.14 160.957 105.193 160.83 105.286 160.737C105.38 160.643 105.507 160.59 105.64 160.59H138.3C138.433 160.59 138.56 160.643 138.654 160.737C138.747 160.83 138.8 160.957 138.8 161.09C138.8 161.223 138.747 161.35 138.654 161.444C138.56 161.537 138.433 161.59 138.3 161.59Z" fill="#D1D3D4"/>
<path d="M138.3 166.38H105.64C105.507 166.38 105.38 166.327 105.286 166.234C105.193 166.14 105.14 166.013 105.14 165.88C105.14 165.747 105.193 165.62 105.286 165.526C105.38 165.433 105.507 165.38 105.64 165.38H138.3C138.433 165.38 138.56 165.433 138.654 165.526C138.747 165.62 138.8 165.747 138.8 165.88C138.8 166.013 138.747 166.14 138.654 166.234C138.56 166.327 138.433 166.38 138.3 166.38Z" fill="#D1D3D4"/>
<path d="M138.3 171.17H105.64C105.507 171.17 105.38 171.117 105.286 171.024C105.193 170.93 105.14 170.803 105.14 170.67C105.14 170.537 105.193 170.41 105.286 170.316C105.38 170.223 105.507 170.17 105.64 170.17H138.3C138.433 170.17 138.56 170.223 138.654 170.316C138.747 170.41 138.8 170.537 138.8 170.67C138.8 170.803 138.747 170.93 138.654 171.024C138.56 171.117 138.433 171.17 138.3 171.17Z" fill="#D1D3D4"/>
<path d="M138.3 175.95H105.64C105.507 175.95 105.38 175.897 105.286 175.804C105.193 175.71 105.14 175.583 105.14 175.45C105.14 175.317 105.193 175.19 105.286 175.097C105.38 175.003 105.507 174.95 105.64 174.95H138.3C138.433 174.95 138.56 175.003 138.654 175.097C138.747 175.19 138.8 175.317 138.8 175.45C138.8 175.583 138.747 175.71 138.654 175.804C138.56 175.897 138.433 175.95 138.3 175.95Z" fill="#D1D3D4"/>
<path d="M138.3 180.74H105.64C105.507 180.74 105.38 180.687 105.286 180.594C105.193 180.5 105.14 180.373 105.14 180.24C105.14 180.108 105.193 179.98 105.286 179.887C105.38 179.793 105.507 179.74 105.64 179.74H138.3C138.433 179.74 138.56 179.793 138.654 179.887C138.747 179.98 138.8 180.108 138.8 180.24C138.8 180.373 138.747 180.5 138.654 180.594C138.56 180.687 138.433 180.74 138.3 180.74Z" fill="#D1D3D4"/>
<path d="M138.3 185.53H105.64C105.507 185.53 105.38 185.477 105.286 185.384C105.193 185.29 105.14 185.163 105.14 185.03C105.14 184.897 105.193 184.77 105.286 184.676C105.38 184.583 105.507 184.53 105.64 184.53H138.3C138.433 184.53 138.56 184.583 138.654 184.676C138.747 184.77 138.8 184.897 138.8 185.03C138.8 185.163 138.747 185.29 138.654 185.384C138.56 185.477 138.433 185.53 138.3 185.53Z" fill="#D1D3D4"/>
<path d="M138.3 190.31H105.64C105.507 190.31 105.38 190.257 105.286 190.164C105.193 190.07 105.14 189.943 105.14 189.81C105.14 189.677 105.193 189.55 105.286 189.456C105.38 189.363 105.507 189.31 105.64 189.31H138.3C138.433 189.31 138.56 189.363 138.654 189.456C138.747 189.55 138.8 189.677 138.8 189.81C138.8 189.943 138.747 190.07 138.654 190.164C138.56 190.257 138.433 190.31 138.3 190.31Z" fill="#D1D3D4"/>
<path d="M138.3 195.1H105.64C105.507 195.1 105.38 195.047 105.286 194.954C105.193 194.86 105.14 194.733 105.14 194.6C105.14 194.467 105.193 194.34 105.286 194.247C105.38 194.153 105.507 194.1 105.64 194.1H138.3C138.433 194.1 138.56 194.153 138.654 194.247C138.747 194.34 138.8 194.467 138.8 194.6C138.8 194.733 138.747 194.86 138.654 194.954C138.56 195.047 138.433 195.1 138.3 195.1Z" fill="#D1D3D4"/>
<path d="M129.86 191.22H96.26V208.86H129.86V191.22Z" fill="white"/>
<path d="M129.85 209.36H96.26C96.1274 209.36 96.0002 209.307 95.9064 209.214C95.8127 209.12 95.76 208.993 95.76 208.86V191.22C95.76 191.087 95.8127 190.96 95.9064 190.867C96.0002 190.773 96.1274 190.72 96.26 190.72H129.85C129.983 190.72 130.11 190.773 130.204 190.867C130.297 190.96 130.35 191.087 130.35 191.22V208.86C130.35 208.993 130.297 209.12 130.204 209.214C130.11 209.307 129.983 209.36 129.85 209.36ZM96.76 208.36H129.35V191.68H96.76V208.36Z" fill="#231F20"/>
<path d="M157.16 162.88H142.24V208.86H157.16V162.88Z" fill="white"/>
<path d="M157.17 209.36H142.24C142.107 209.36 141.98 209.307 141.886 209.214C141.793 209.12 141.74 208.993 141.74 208.86V162.86C141.74 162.727 141.793 162.6 141.886 162.506C141.98 162.413 142.107 162.36 142.24 162.36H157.17C157.303 162.36 157.43 162.413 157.524 162.506C157.617 162.6 157.67 162.727 157.67 162.86V208.86C157.67 208.993 157.617 209.12 157.524 209.214C157.43 209.307 157.303 209.36 157.17 209.36ZM142.74 208.36H156.67V163.36H142.74V208.36Z" fill="#231F20"/>
<path d="M94.9 117.83H75.23V167.57H94.9V117.83Z" fill="white"/>
<path d="M94.9 168.07H75.23C75.0974 168.07 74.9702 168.017 74.8764 167.924C74.7827 167.83 74.73 167.703 74.73 167.57V117.83C74.73 117.697 74.7827 117.57 74.8764 117.477C74.9702 117.383 75.0974 117.33 75.23 117.33H94.9C95.0326 117.33 95.1598 117.383 95.2535 117.477C95.3473 117.57 95.4 117.697 95.4 117.83V167.57C95.4 167.703 95.3473 167.83 95.2535 167.924C95.1598 168.017 95.0326 168.07 94.9 168.07ZM75.73 167.07H94.4V118.33H75.73V167.07Z" fill="#231F20"/>
<path d="M84.34 118.33C84.2074 118.33 84.0802 118.277 83.9864 118.184C83.8926 118.09 83.84 117.963 83.84 117.83V113.32C83.84 113.187 83.8926 113.06 83.9864 112.967C84.0802 112.873 84.2074 112.82 84.34 112.82C84.4718 112.823 84.5975 112.876 84.6907 112.969C84.7839 113.063 84.8374 113.188 84.84 113.32V117.83C84.8374 117.962 84.7839 118.088 84.6907 118.181C84.5975 118.274 84.4718 118.328 84.34 118.33Z" fill="#231F20"/>
<path d="M78.42 169.85C78.2874 169.85 78.1602 169.797 78.0664 169.704C77.9727 169.61 77.92 169.483 77.92 169.35V121.58C77.9225 121.448 77.976 121.323 78.0693 121.229C78.1625 121.136 78.2882 121.083 78.42 121.08C78.5526 121.08 78.6798 121.133 78.7735 121.227C78.8673 121.32 78.92 121.447 78.92 121.58V169.35C78.92 169.483 78.8673 169.61 78.7735 169.704C78.6798 169.797 78.5526 169.85 78.42 169.85Z" fill="#D1D3D4"/>
<path d="M81.61 169.85C81.4774 169.85 81.3502 169.797 81.2564 169.704C81.1627 169.61 81.11 169.483 81.11 169.35V121.58C81.1125 121.448 81.166 121.323 81.2593 121.229C81.3525 121.136 81.4782 121.083 81.61 121.08C81.7426 121.08 81.8698 121.133 81.9635 121.227C82.0573 121.32 82.11 121.447 82.11 121.58V169.35C82.11 169.483 82.0573 169.61 81.9635 169.704C81.8698 169.797 81.7426 169.85 81.61 169.85Z" fill="#D1D3D4"/>
<path d="M84.81 169.85C84.6774 169.85 84.5502 169.797 84.4564 169.704C84.3627 169.61 84.31 169.483 84.31 169.35V121.58C84.31 121.447 84.3627 121.32 84.4564 121.227C84.5502 121.133 84.6774 121.08 84.81 121.08C84.9418 121.083 85.0675 121.136 85.1607 121.229C85.2539 121.323 85.3074 121.448 85.31 121.58V169.35C85.31 169.483 85.2573 169.61 85.1636 169.704C85.0698 169.797 84.9426 169.85 84.81 169.85Z" fill="#D1D3D4"/>
<path d="M88 169.85C87.8674 169.85 87.7402 169.797 87.6464 169.704C87.5527 169.61 87.5 169.483 87.5 169.35V121.58C87.5 121.447 87.5527 121.32 87.6464 121.227C87.7402 121.133 87.8674 121.08 88 121.08C88.1318 121.083 88.2575 121.136 88.3507 121.229C88.4439 121.323 88.4974 121.448 88.5 121.58V169.35C88.5 169.483 88.4473 169.61 88.3536 169.704C88.2598 169.797 88.1326 169.85 88 169.85Z" fill="#D1D3D4"/>
<path d="M91.1899 169.85C91.0573 169.85 90.9302 169.797 90.8364 169.704C90.7426 169.61 90.6899 169.483 90.6899 169.35V121.58C90.6899 121.447 90.7426 121.32 90.8364 121.227C90.9302 121.133 91.0573 121.08 91.1899 121.08C91.3217 121.083 91.4474 121.136 91.5407 121.229C91.6339 121.323 91.6874 121.448 91.6899 121.58V169.35C91.6899 169.483 91.6373 169.61 91.5435 169.704C91.4497 169.797 91.3225 169.85 91.1899 169.85Z" fill="#D1D3D4"/>
<path d="M81.61 165.88H55.1V191.22H81.61V165.88Z" fill="#231F20"/>
<path d="M81.6099 191.75H55.0999C54.9594 191.75 54.8246 191.694 54.7252 191.595C54.6258 191.495 54.5699 191.361 54.5699 191.22V165.88C54.5699 165.74 54.6258 165.605 54.7252 165.505C54.8246 165.406 54.9594 165.35 55.0999 165.35H81.6099C81.7505 165.35 81.8853 165.406 81.9847 165.505C82.0841 165.605 82.1399 165.74 82.1399 165.88V191.22C82.1399 191.361 82.0841 191.495 81.9847 191.595C81.8853 191.694 81.7505 191.75 81.6099 191.75ZM55.6099 190.69H81.0999V166.41H55.6299L55.6099 190.69Z" fill="#231F20"/>
<path d="M42.15 151.62H33.19V155.18H29.9V188.59L43.51 187.58L42.15 151.62Z" fill="#231F20"/>
<path d="M29.9 189.12C29.7668 189.119 29.6386 189.07 29.54 188.98C29.4342 188.878 29.3732 188.737 29.37 188.59V155.18C29.37 155.04 29.4258 154.905 29.5252 154.805C29.6246 154.706 29.7594 154.65 29.9 154.65H32.66V151.65C32.6586 151.58 32.6714 151.511 32.6976 151.446C32.7237 151.381 32.7627 151.322 32.8122 151.272C32.8617 151.223 32.9207 151.184 32.9856 151.158C33.0505 151.132 33.12 151.119 33.19 151.12H42.19C42.3272 151.12 42.459 151.173 42.5579 151.268C42.6567 151.363 42.7148 151.493 42.72 151.63L44.08 187.63C44.0831 187.767 44.0343 187.9 43.9433 188.002C43.8524 188.104 43.7261 188.167 43.59 188.18L29.98 189.18L29.9 189.12ZM30.43 155.68V188L42.96 187.06L41.64 152.11H33.71V155.11C33.7113 155.179 33.6989 155.248 33.6733 155.312C33.6478 155.376 33.6097 155.435 33.5613 155.484C33.5129 155.534 33.4551 155.573 33.3913 155.6C33.3276 155.626 33.2591 155.64 33.19 155.64L30.43 155.68Z" fill="#231F20"/>
<path d="M56.46 141.48H40.13V197.65H56.46V141.48Z" fill="#231F20"/>
<path d="M56.4599 198.18H40.0999C39.9594 198.18 39.8246 198.124 39.7252 198.025C39.6258 197.925 39.5699 197.791 39.5699 197.65V141.48C39.5699 141.34 39.6258 141.205 39.7252 141.105C39.8246 141.006 39.9594 140.95 40.0999 140.95H56.4599C56.6005 140.95 56.7353 141.006 56.8347 141.105C56.9341 141.205 56.9899 141.34 56.9899 141.48V197.68C56.9823 197.815 56.9231 197.943 56.8245 198.036C56.7259 198.129 56.5955 198.18 56.4599 198.18ZM40.6599 197.12H55.9299V142.01H40.6599V197.12Z" fill="#231F20"/>
<path d="M26.52 160.25H10.1V204.92H26.52V160.25Z" fill="#231F20"/>
<path d="M26.52 205.45H10.1C9.95943 205.45 9.82462 205.394 9.72522 205.295C9.62583 205.195 9.56999 205.061 9.56999 204.92V160.25C9.56448 160.177 9.5741 160.104 9.59825 160.035C9.6224 159.966 9.66057 159.903 9.71034 159.849C9.76012 159.796 9.82043 159.753 9.88749 159.724C9.95454 159.695 10.0269 159.68 10.1 159.68H26.52C26.6606 159.68 26.7954 159.736 26.8948 159.835C26.9942 159.935 27.05 160.069 27.05 160.21V204.88C27.0555 204.953 27.0459 205.026 27.0217 205.095C26.9976 205.164 26.9594 205.227 26.9096 205.281C26.8599 205.334 26.7996 205.377 26.7325 205.406C26.6654 205.435 26.5931 205.45 26.52 205.45ZM10.63 204.4H26V160.78H10.63V204.4Z" fill="#231F20"/>
<path d="M35.11 171.04H19.48V204.11H35.11V171.04Z" fill="#231F20"/>
<path d="M35.1 204.68H19.48C19.342 204.68 19.2098 204.625 19.1123 204.528C19.0147 204.43 18.96 204.298 18.96 204.16V171.04C18.96 170.902 19.0147 170.77 19.1123 170.672C19.2098 170.575 19.342 170.52 19.48 170.52H35.1C35.1691 170.519 35.2378 170.531 35.302 170.557C35.3663 170.582 35.4248 170.62 35.4741 170.669C35.5235 170.717 35.5627 170.775 35.5894 170.839C35.6162 170.902 35.63 170.971 35.63 171.04V204.12C35.6356 204.192 35.6259 204.265 35.6017 204.334C35.5774 204.402 35.5391 204.465 35.4892 204.518C35.4392 204.57 35.3788 204.612 35.3118 204.64C35.2447 204.668 35.1726 204.682 35.1 204.68ZM20 203.63H34.58V171.63H20.01L20 203.63Z" fill="#231F20"/>
<path d="M73.35 182.02H29.9V206.16H73.35V182.02Z" fill="white"/>
<path d="M73.36 206.68H29.9C29.7674 206.68 29.6402 206.627 29.5464 206.534C29.4526 206.44 29.4 206.313 29.4 206.18V182.02C29.4025 181.888 29.456 181.763 29.5492 181.669C29.6425 181.576 29.7682 181.523 29.9 181.52H73.36C73.4918 181.523 73.6175 181.576 73.7107 181.669C73.8039 181.763 73.8574 181.888 73.86 182.02V206.16C73.8627 206.227 73.8517 206.295 73.8278 206.358C73.8039 206.421 73.7675 206.478 73.7208 206.527C73.6741 206.575 73.618 206.614 73.556 206.64C73.494 206.667 73.4273 206.68 73.36 206.68ZM30.36 205.68H72.82V182.52H30.4L30.36 205.68Z" fill="#231F20"/>
<path d="M16.48 196.48H10.1V157.81H5.22V149.36H0.5V208.86H14.6L16.48 196.48Z" fill="white"/>
<path d="M14.6 209.36H0.5C0.367392 209.36 0.240214 209.307 0.146446 209.214C0.052678 209.12 0 208.993 0 208.86V149.36C0 149.227 0.052678 149.1 0.146446 149.006C0.240214 148.913 0.367392 148.86 0.5 148.86H5.22C5.3518 148.863 5.4775 148.916 5.57072 149.009C5.66394 149.102 5.71744 149.228 5.72 149.36V157.31H10.1C10.2326 157.31 10.3598 157.363 10.4536 157.456C10.5473 157.55 10.6 157.677 10.6 157.81V195.98H16.48C16.5519 195.979 16.6233 195.993 16.6889 196.023C16.7546 196.052 16.813 196.095 16.86 196.15C16.906 196.205 16.9404 196.269 16.9611 196.338C16.9817 196.406 16.9881 196.479 16.98 196.55L15.1 208.93C15.0811 209.049 15.0204 209.158 14.9288 209.237C14.8373 209.315 14.7208 209.359 14.6 209.36ZM1 208.36H14.17L15.9 196.98H10.1C9.96739 196.98 9.84021 196.927 9.74644 196.834C9.65268 196.74 9.6 196.613 9.6 196.48V158.31H5.22C5.08739 158.31 4.96021 158.257 4.86644 158.164C4.77268 158.07 4.72 157.943 4.72 157.81V149.86H1V208.36Z" fill="#231F20"/>
<path d="M96.26 176.96H63.55V208.86H96.26V176.96Z" fill="white"/>
<path d="M96.26 209.36H63.55C63.4174 209.36 63.2902 209.307 63.1964 209.214C63.1027 209.12 63.05 208.993 63.05 208.86V176.96C63.05 176.827 63.1027 176.7 63.1964 176.607C63.2902 176.513 63.4174 176.46 63.55 176.46H96.26C96.3926 176.46 96.5198 176.513 96.6135 176.607C96.7073 176.7 96.76 176.827 96.76 176.96V208.86C96.76 208.993 96.7073 209.12 96.6135 209.214C96.5198 209.307 96.3926 209.36 96.26 209.36ZM64.05 208.36H95.76V177.46H64.1L64.05 208.36Z" fill="#231F20"/>
<path d="M96.26 161.75H73.36V176.95H96.26V161.75Z" fill="white"/>
<path d="M96.26 177.46H73.36C73.2274 177.46 73.1002 177.407 73.0064 177.314C72.9127 177.22 72.86 177.093 72.86 176.96V161.75C72.86 161.618 72.9127 161.49 73.0064 161.397C73.1002 161.303 73.2274 161.25 73.36 161.25H96.26C96.3926 161.25 96.5198 161.303 96.6135 161.397C96.7073 161.49 96.76 161.618 96.76 161.75V176.96C96.7574 177.092 96.7039 177.218 96.6107 177.311C96.5175 177.404 96.3918 177.458 96.26 177.46ZM73.86 176.46H95.76V162.25H73.86V176.46Z" fill="#231F20"/>
<path d="M65.29 192.91H12.52V208.86H65.29V192.91Z" fill="white"/>
<path d="M65.28 209.36H12.52C12.3874 209.36 12.2602 209.307 12.1664 209.214C12.0726 209.12 12.02 208.993 12.02 208.86V192.86C12.02 192.727 12.0726 192.6 12.1664 192.506C12.2602 192.413 12.3874 192.36 12.52 192.36H65.28C65.4126 192.36 65.5397 192.413 65.6335 192.506C65.7273 192.6 65.78 192.727 65.78 192.86V208.86C65.78 208.993 65.7273 209.12 65.6335 209.214C65.5397 209.307 65.4126 209.36 65.28 209.36ZM13.02 208.36H64.78V193.36H13.02V208.36Z" fill="#231F20"/>
<path d="M3.95996 194.49C3.82735 194.49 3.70018 194.437 3.60641 194.344C3.51264 194.25 3.45996 194.123 3.45996 193.99V161.75C3.45996 161.618 3.51264 161.49 3.60641 161.397C3.70018 161.303 3.82735 161.25 3.95996 161.25C4.09257 161.25 4.21975 161.303 4.31351 161.397C4.40728 161.49 4.45996 161.618 4.45996 161.75V193.99C4.45996 194.123 4.40728 194.25 4.31351 194.344C4.21975 194.437 4.09257 194.49 3.95996 194.49Z" fill="#D1D3D4"/>
<path d="M6.63995 194.49C6.50735 194.49 6.38017 194.437 6.2864 194.344C6.19263 194.25 6.13995 194.123 6.13995 193.99V161.75C6.13995 161.618 6.19263 161.49 6.2864 161.397C6.38017 161.303 6.50735 161.25 6.63995 161.25C6.77256 161.25 6.89974 161.303 6.99351 161.397C7.08728 161.49 7.13995 161.618 7.13995 161.75V193.99C7.13995 194.123 7.08728 194.25 6.99351 194.344C6.89974 194.437 6.77256 194.49 6.63995 194.49Z" fill="#D1D3D4"/>
<path d="M10.1 196.98H0.5C0.367392 196.98 0.240214 196.927 0.146446 196.834C0.052678 196.74 0 196.613 0 196.48C0 196.347 0.052678 196.22 0.146446 196.127C0.240214 196.033 0.367392 195.98 0.5 195.98H10.1C10.2326 195.98 10.3598 196.033 10.4536 196.127C10.5473 196.22 10.6 196.347 10.6 196.48C10.5974 196.612 10.5439 196.738 10.4507 196.831C10.3575 196.924 10.2318 196.978 10.1 196.98Z" fill="#231F20"/>
<path d="M5.22 158.31H0.5C0.367392 158.31 0.240214 158.257 0.146446 158.164C0.052678 158.07 0 157.943 0 157.81C0 157.677 0.052678 157.55 0.146446 157.456C0.240214 157.363 0.367392 157.31 0.5 157.31H5.22C5.35261 157.31 5.47978 157.363 5.57355 157.456C5.66732 157.55 5.72 157.677 5.72 157.81C5.72 157.943 5.66732 158.07 5.57355 158.164C5.47978 158.257 5.35261 158.31 5.22 158.31Z" fill="#231F20"/>
<path d="M138.3 88.4801H105.64C105.507 88.4801 105.38 88.4274 105.286 88.3336C105.193 88.2399 105.14 88.1127 105.14 87.9801C105.14 87.8475 105.193 87.7203 105.286 87.6265C105.38 87.5328 105.507 87.4801 105.64 87.4801H138.3C138.433 87.4801 138.56 87.5328 138.654 87.6265C138.747 87.7203 138.8 87.8475 138.8 87.9801C138.8 88.1127 138.747 88.2399 138.654 88.3336C138.56 88.4274 138.433 88.4801 138.3 88.4801Z" fill="#D1D3D4"/>
<path d="M138.3 93.27H105.64C105.507 93.27 105.38 93.2173 105.286 93.1236C105.193 93.0298 105.14 92.9026 105.14 92.77C105.14 92.6374 105.193 92.5102 105.286 92.4165C105.38 92.3227 105.507 92.27 105.64 92.27H138.3C138.433 92.27 138.56 92.3227 138.654 92.4165C138.747 92.5102 138.8 92.6374 138.8 92.77C138.8 92.9026 138.747 93.0298 138.654 93.1236C138.56 93.2173 138.433 93.27 138.3 93.27Z" fill="#D1D3D4"/>
<path d="M138.3 98.0601H105.64C105.507 98.0601 105.38 98.0074 105.286 97.9136C105.193 97.8198 105.14 97.6927 105.14 97.5601C105.14 97.4275 105.193 97.3003 105.286 97.2065C105.38 97.1127 105.507 97.0601 105.64 97.0601H138.3C138.433 97.0601 138.56 97.1127 138.654 97.2065C138.747 97.3003 138.8 97.4275 138.8 97.5601C138.8 97.6927 138.747 97.8198 138.654 97.9136C138.56 98.0074 138.433 98.0601 138.3 98.0601Z" fill="#D1D3D4"/>
<path d="M138.3 102.84H105.64C105.507 102.84 105.38 102.787 105.286 102.694C105.193 102.6 105.14 102.473 105.14 102.34C105.14 102.207 105.193 102.08 105.286 101.987C105.38 101.893 105.507 101.84 105.64 101.84H138.3C138.433 101.84 138.56 101.893 138.654 101.987C138.747 102.08 138.8 102.207 138.8 102.34C138.8 102.473 138.747 102.6 138.654 102.694C138.56 102.787 138.433 102.84 138.3 102.84Z" fill="#D1D3D4"/>
<path d="M138.3 107.68H105.64C105.507 107.68 105.38 107.627 105.286 107.534C105.193 107.44 105.14 107.313 105.14 107.18C105.14 107.047 105.193 106.92 105.286 106.827C105.38 106.733 105.507 106.68 105.64 106.68H138.3C138.433 106.68 138.56 106.733 138.654 106.827C138.747 106.92 138.8 107.047 138.8 107.18C138.8 107.313 138.747 107.44 138.654 107.534C138.56 107.627 138.433 107.68 138.3 107.68Z" fill="#D1D3D4"/>
<path d="M138.3 112.42H105.64C105.507 112.42 105.38 112.367 105.286 112.274C105.193 112.18 105.14 112.053 105.14 111.92C105.14 111.787 105.193 111.66 105.286 111.566C105.38 111.473 105.507 111.42 105.64 111.42H138.3C138.433 111.42 138.56 111.473 138.654 111.566C138.747 111.66 138.8 111.787 138.8 111.92C138.8 112.053 138.747 112.18 138.654 112.274C138.56 112.367 138.433 112.42 138.3 112.42Z" fill="#D1D3D4"/>
<path d="M138.3 117.2H105.64C105.507 117.2 105.38 117.147 105.286 117.054C105.193 116.96 105.14 116.833 105.14 116.7C105.14 116.567 105.193 116.44 105.286 116.347C105.38 116.253 105.507 116.2 105.64 116.2H138.3C138.433 116.2 138.56 116.253 138.654 116.347C138.747 116.44 138.8 116.567 138.8 116.7C138.8 116.833 138.747 116.96 138.654 117.054C138.56 117.147 138.433 117.2 138.3 117.2Z" fill="#D1D3D4"/>
<path d="M138.3 121.99H105.64C105.507 121.99 105.38 121.937 105.286 121.844C105.193 121.75 105.14 121.623 105.14 121.49C105.14 121.358 105.193 121.23 105.286 121.137C105.38 121.043 105.507 120.99 105.64 120.99H138.3C138.433 120.99 138.56 121.043 138.654 121.137C138.747 121.23 138.8 121.358 138.8 121.49C138.8 121.623 138.747 121.75 138.654 121.844C138.56 121.937 138.433 121.99 138.3 121.99Z" fill="#D1D3D4"/>
<path d="M138.3 126.77H105.64C105.507 126.77 105.38 126.717 105.286 126.624C105.193 126.53 105.14 126.403 105.14 126.27C105.14 126.137 105.193 126.01 105.286 125.916C105.38 125.823 105.507 125.77 105.64 125.77H138.3C138.433 125.77 138.56 125.823 138.654 125.916C138.747 126.01 138.8 126.137 138.8 126.27C138.8 126.403 138.747 126.53 138.654 126.624C138.56 126.717 138.433 126.77 138.3 126.77Z" fill="#D1D3D4"/>
<path d="M138.3 131.56H105.64C105.507 131.56 105.38 131.507 105.286 131.414C105.193 131.32 105.14 131.193 105.14 131.06C105.14 130.927 105.193 130.8 105.286 130.706C105.38 130.613 105.507 130.56 105.64 130.56H138.3C138.433 130.56 138.56 130.613 138.654 130.706C138.747 130.8 138.8 130.927 138.8 131.06C138.8 131.193 138.747 131.32 138.654 131.414C138.56 131.507 138.433 131.56 138.3 131.56Z" fill="#D1D3D4"/>
<path d="M138.3 136.35H105.64C105.507 136.35 105.38 136.297 105.286 136.204C105.193 136.11 105.14 135.983 105.14 135.85C105.14 135.717 105.193 135.59 105.286 135.497C105.38 135.403 105.507 135.35 105.64 135.35H138.3C138.433 135.35 138.56 135.403 138.654 135.497C138.747 135.59 138.8 135.717 138.8 135.85C138.8 135.983 138.747 136.11 138.654 136.204C138.56 136.297 138.433 136.35 138.3 136.35Z" fill="#D1D3D4"/>
<path d="M146.47 204.62C146.337 204.62 146.21 204.567 146.116 204.474C146.023 204.38 145.97 204.253 145.97 204.12V169.35C145.97 169.217 146.023 169.09 146.116 168.997C146.21 168.903 146.337 168.85 146.47 168.85C146.602 168.853 146.727 168.906 146.821 168.999C146.914 169.093 146.967 169.218 146.97 169.35V204.12C146.967 204.252 146.914 204.378 146.821 204.471C146.727 204.564 146.602 204.618 146.47 204.62Z" fill="#D1D3D4"/>
<path d="M149.71 204.62C149.577 204.62 149.45 204.567 149.356 204.474C149.263 204.38 149.21 204.253 149.21 204.12V169.35C149.21 169.217 149.263 169.09 149.356 168.997C149.45 168.903 149.577 168.85 149.71 168.85C149.842 168.853 149.967 168.906 150.061 168.999C150.154 169.093 150.207 169.218 150.21 169.35V204.12C150.207 204.252 150.154 204.378 150.061 204.471C149.967 204.564 149.842 204.618 149.71 204.62Z" fill="#D1D3D4"/>
<path d="M152.94 204.62C152.808 204.618 152.682 204.564 152.589 204.471C152.496 204.378 152.443 204.252 152.44 204.12V169.35C152.443 169.218 152.496 169.093 152.589 168.999C152.682 168.906 152.808 168.853 152.94 168.85C153.073 168.85 153.2 168.903 153.294 168.997C153.387 169.09 153.44 169.217 153.44 169.35V204.12C153.44 204.253 153.387 204.38 153.294 204.474C153.2 204.567 153.073 204.62 152.94 204.62Z" fill="#D1D3D4"/>
<path d="M92.29 181.77H68.36C68.2274 181.77 68.1002 181.717 68.0064 181.624C67.9127 181.53 67.86 181.403 67.86 181.27C67.86 181.137 67.9127 181.01 68.0064 180.916C68.1002 180.823 68.2274 180.77 68.36 180.77H92.29C92.4226 180.77 92.5498 180.823 92.6435 180.916C92.7373 181.01 92.79 181.137 92.79 181.27C92.79 181.403 92.7373 181.53 92.6435 181.624C92.5498 181.717 92.4226 181.77 92.29 181.77Z" fill="#D1D3D4"/>
<path d="M92.29 185.53H68.36C68.2274 185.53 68.1002 185.477 68.0064 185.384C67.9127 185.29 67.86 185.163 67.86 185.03C67.86 184.897 67.9127 184.77 68.0064 184.676C68.1002 184.583 68.2274 184.53 68.36 184.53H92.29C92.4226 184.53 92.5498 184.583 92.6435 184.676C92.7373 184.77 92.79 184.897 92.79 185.03C92.79 185.163 92.7373 185.29 92.6435 185.384C92.5498 185.477 92.4226 185.53 92.29 185.53Z" fill="#D1D3D4"/>
<path d="M92.29 189.28H68.36C68.2274 189.28 68.1002 189.227 68.0064 189.134C67.9127 189.04 67.86 188.913 67.86 188.78C67.86 188.647 67.9127 188.52 68.0064 188.426C68.1002 188.333 68.2274 188.28 68.36 188.28H92.29C92.4226 188.28 92.5498 188.333 92.6435 188.426C92.7373 188.52 92.79 188.647 92.79 188.78C92.79 188.913 92.7373 189.04 92.6435 189.134C92.5498 189.227 92.4226 189.28 92.29 189.28Z" fill="#D1D3D4"/>
<path d="M92.29 193.04H68.36C68.2274 193.04 68.1002 192.987 68.0064 192.894C67.9127 192.8 67.86 192.673 67.86 192.54C67.86 192.407 67.9127 192.28 68.0064 192.186C68.1002 192.093 68.2274 192.04 68.36 192.04H92.29C92.4226 192.04 92.5498 192.093 92.6435 192.186C92.7373 192.28 92.79 192.407 92.79 192.54C92.79 192.673 92.7373 192.8 92.6435 192.894C92.5498 192.987 92.4226 193.04 92.29 193.04Z" fill="#D1D3D4"/>
<path d="M92.29 196.79H68.36C68.2274 196.79 68.1002 196.737 68.0064 196.644C67.9127 196.55 67.86 196.423 67.86 196.29C67.86 196.157 67.9127 196.03 68.0064 195.936C68.1002 195.843 68.2274 195.79 68.36 195.79H92.29C92.4226 195.79 92.5498 195.843 92.6435 195.936C92.7373 196.03 92.79 196.157 92.79 196.29C92.79 196.423 92.7373 196.55 92.6435 196.644C92.5498 196.737 92.4226 196.79 92.29 196.79Z" fill="#D1D3D4"/>
<path d="M92.29 200.54H68.36C68.2274 200.54 68.1002 200.487 68.0064 200.394C67.9127 200.3 67.86 200.173 67.86 200.04C67.86 199.907 67.9127 199.78 68.0064 199.686C68.1002 199.593 68.2274 199.54 68.36 199.54H92.29C92.4226 199.54 92.5498 199.593 92.6435 199.686C92.7373 199.78 92.79 199.907 92.79 200.04C92.79 200.173 92.7373 200.3 92.6435 200.394C92.5498 200.487 92.4226 200.54 92.29 200.54Z" fill="#D1D3D4"/>
<path d="M92.29 204.3H68.36C68.2274 204.3 68.1002 204.247 68.0064 204.154C67.9127 204.06 67.86 203.933 67.86 203.8C67.86 203.667 67.9127 203.54 68.0064 203.447C68.1002 203.353 68.2274 203.3 68.36 203.3H92.29C92.4226 203.3 92.5498 203.353 92.6435 203.447C92.7373 203.54 92.79 203.667 92.79 203.8C92.79 203.933 92.7373 204.06 92.6435 204.154C92.5498 204.247 92.4226 204.3 92.29 204.3Z" fill="#D1D3D4"/>
<path d="M16.48 206.68C16.3474 206.68 16.2202 206.627 16.1264 206.534C16.0327 206.44 15.98 206.313 15.98 206.18V196.48C15.98 196.347 16.0327 196.22 16.1264 196.127C16.2202 196.033 16.3474 195.98 16.48 195.98C16.6126 195.98 16.7398 196.033 16.8335 196.127C16.9273 196.22 16.98 196.347 16.98 196.48V206.16C16.9827 206.227 16.9717 206.295 16.9478 206.358C16.9239 206.421 16.8875 206.478 16.8408 206.527C16.7941 206.575 16.7381 206.614 16.6761 206.64C16.6141 206.667 16.5474 206.68 16.48 206.68Z" fill="#D1D3D4"/>
<path d="M20.47 206.68C20.3374 206.68 20.2102 206.627 20.1164 206.534C20.0226 206.44 19.97 206.313 19.97 206.18V196.48C19.97 196.347 20.0226 196.22 20.1164 196.127C20.2102 196.033 20.3374 195.98 20.47 195.98C20.6026 195.98 20.7298 196.033 20.8235 196.127C20.9173 196.22 20.97 196.347 20.97 196.48V206.16C20.9727 206.227 20.9617 206.295 20.9378 206.358C20.9139 206.421 20.8775 206.478 20.8308 206.527C20.7841 206.575 20.7281 206.614 20.666 206.64C20.604 206.667 20.5373 206.68 20.47 206.68Z" fill="#D1D3D4"/>
<path d="M24.46 206.68C24.3274 206.68 24.2002 206.627 24.1064 206.534C24.0126 206.44 23.96 206.313 23.96 206.18V196.48C23.96 196.347 24.0126 196.22 24.1064 196.127C24.2002 196.033 24.3274 195.98 24.46 195.98C24.5926 195.98 24.7197 196.033 24.8135 196.127C24.9073 196.22 24.96 196.347 24.96 196.48V206.16C24.9627 206.227 24.9517 206.295 24.9278 206.358C24.9039 206.421 24.8675 206.478 24.8208 206.527C24.7741 206.575 24.718 206.614 24.656 206.64C24.594 206.667 24.5273 206.68 24.46 206.68Z" fill="#D1D3D4"/>
<path d="M28.45 206.68C28.3173 206.68 28.1902 206.627 28.0964 206.534C28.0026 206.44 27.95 206.313 27.95 206.18V196.48C27.95 196.347 28.0026 196.22 28.0964 196.127C28.1902 196.033 28.3173 195.98 28.45 195.98C28.5826 195.98 28.7097 196.033 28.8035 196.127C28.8973 196.22 28.95 196.347 28.95 196.48V206.16C28.9526 206.227 28.9417 206.295 28.9178 206.358C28.8939 206.421 28.8575 206.478 28.8108 206.527C28.7641 206.575 28.708 206.614 28.646 206.64C28.584 206.667 28.5173 206.68 28.45 206.68Z" fill="#D1D3D4"/>
<path d="M32.4399 206.68C32.3073 206.68 32.1802 206.627 32.0864 206.534C31.9926 206.44 31.9399 206.313 31.9399 206.18V196.48C31.9399 196.347 31.9926 196.22 32.0864 196.127C32.1802 196.033 32.3073 195.98 32.4399 195.98C32.5725 195.98 32.6997 196.033 32.7935 196.127C32.8873 196.22 32.9399 196.347 32.9399 196.48V206.16C32.9426 206.227 32.9317 206.295 32.9078 206.358C32.8839 206.421 32.8475 206.478 32.8008 206.527C32.7541 206.575 32.698 206.614 32.636 206.64C32.574 206.667 32.5073 206.68 32.4399 206.68Z" fill="#D1D3D4"/>
<path d="M36.42 206.68C36.2874 206.68 36.1602 206.627 36.0664 206.534C35.9727 206.44 35.92 206.313 35.92 206.18V196.48C35.92 196.347 35.9727 196.22 36.0664 196.127C36.1602 196.033 36.2874 195.98 36.42 195.98C36.5526 195.98 36.6798 196.033 36.7735 196.127C36.8673 196.22 36.92 196.347 36.92 196.48V206.16C36.9227 206.227 36.9117 206.295 36.8878 206.358C36.8639 206.421 36.8275 206.478 36.7808 206.527C36.7341 206.575 36.6781 206.614 36.6161 206.64C36.5541 206.667 36.4874 206.68 36.42 206.68Z" fill="#D1D3D4"/>
<path d="M40.41 206.68C40.2774 206.68 40.1502 206.627 40.0564 206.534C39.9627 206.44 39.91 206.313 39.91 206.18V196.48C39.91 196.347 39.9627 196.22 40.0564 196.127C40.1502 196.033 40.2774 195.98 40.41 195.98C40.5426 195.98 40.6698 196.033 40.7635 196.127C40.8573 196.22 40.91 196.347 40.91 196.48V206.16C40.9127 206.227 40.9017 206.295 40.8778 206.358C40.8539 206.421 40.8175 206.478 40.7708 206.527C40.7241 206.575 40.6681 206.614 40.606 206.64C40.544 206.667 40.4774 206.68 40.41 206.68Z" fill="#D1D3D4"/>
<path d="M44.4 206.68C44.2674 206.68 44.1402 206.627 44.0464 206.534C43.9526 206.44 43.9 206.313 43.9 206.18V196.48C43.9 196.347 43.9526 196.22 44.0464 196.127C44.1402 196.033 44.2674 195.98 44.4 195.98C44.5326 195.98 44.6597 196.033 44.7535 196.127C44.8473 196.22 44.9 196.347 44.9 196.48V206.16C44.9027 206.227 44.8917 206.295 44.8678 206.358C44.8439 206.421 44.8075 206.478 44.7608 206.527C44.7141 206.575 44.658 206.614 44.596 206.64C44.534 206.667 44.4673 206.68 44.4 206.68Z" fill="#D1D3D4"/>
<path d="M48.39 206.68C48.2573 206.68 48.1302 206.627 48.0364 206.534C47.9426 206.44 47.89 206.313 47.89 206.18V196.48C47.89 196.347 47.9426 196.22 48.0364 196.127C48.1302 196.033 48.2573 195.98 48.39 195.98C48.5226 195.98 48.6497 196.033 48.7435 196.127C48.8373 196.22 48.89 196.347 48.89 196.48V206.16C48.8926 206.227 48.8817 206.295 48.8578 206.358C48.8339 206.421 48.7975 206.478 48.7508 206.527C48.7041 206.575 48.648 206.614 48.586 206.64C48.524 206.667 48.4573 206.68 48.39 206.68Z" fill="#D1D3D4"/>
<path d="M52.38 206.68C52.2474 206.68 52.1202 206.627 52.0265 206.534C51.9327 206.44 51.88 206.313 51.88 206.18V196.48C51.88 196.347 51.9327 196.22 52.0265 196.127C52.1202 196.033 52.2474 195.98 52.38 195.98C52.5126 195.98 52.6398 196.033 52.7336 196.127C52.8273 196.22 52.88 196.347 52.88 196.48V206.16C52.8827 206.227 52.8718 206.295 52.8478 206.358C52.8239 206.421 52.7875 206.478 52.7408 206.527C52.6941 206.575 52.6381 206.614 52.5761 206.64C52.5141 206.667 52.4474 206.68 52.38 206.68Z" fill="#D1D3D4"/>
<path d="M56.37 206.68C56.2374 206.68 56.1102 206.627 56.0164 206.534C55.9227 206.44 55.87 206.313 55.87 206.18V196.48C55.87 196.347 55.9227 196.22 56.0164 196.127C56.1102 196.033 56.2374 195.98 56.37 195.98C56.5026 195.98 56.6298 196.033 56.7235 196.127C56.8173 196.22 56.87 196.347 56.87 196.48V206.16C56.8727 206.227 56.8618 206.295 56.8378 206.358C56.8139 206.421 56.7775 206.478 56.7308 206.527C56.6841 206.575 56.6281 206.614 56.5661 206.64C56.5041 206.667 56.4374 206.68 56.37 206.68Z" fill="#D1D3D4"/>
<path d="M60.36 206.68C60.2274 206.68 60.1002 206.627 60.0064 206.534C59.9127 206.44 59.86 206.313 59.86 206.18V196.48C59.86 196.347 59.9127 196.22 60.0064 196.127C60.1002 196.033 60.2274 195.98 60.36 195.98C60.4926 195.98 60.6198 196.033 60.7135 196.127C60.8073 196.22 60.86 196.347 60.86 196.48V206.16C60.8627 206.227 60.8517 206.295 60.8278 206.358C60.8039 206.421 60.7675 206.478 60.7208 206.527C60.6741 206.575 60.6181 206.614 60.5561 206.64C60.4941 206.667 60.4274 206.68 60.36 206.68Z" fill="#D1D3D4"/>
<path d="M183.35 207.3C183.217 207.3 183.09 207.247 182.996 207.154C182.903 207.06 182.85 206.933 182.85 206.8V194.6C182.85 194.467 182.903 194.34 182.996 194.247C183.09 194.153 183.217 194.1 183.35 194.1C183.483 194.1 183.61 194.153 183.704 194.247C183.797 194.34 183.85 194.467 183.85 194.6V206.8C183.85 206.933 183.797 207.06 183.704 207.154C183.61 207.247 183.483 207.3 183.35 207.3Z" fill="#D1D3D4"/>
<path d="M204.75 207.3C204.617 207.3 204.49 207.247 204.396 207.154C204.303 207.06 204.25 206.933 204.25 206.8V194.6C204.25 194.467 204.303 194.34 204.396 194.247C204.49 194.153 204.617 194.1 204.75 194.1C204.883 194.1 205.01 194.153 205.104 194.247C205.197 194.34 205.25 194.467 205.25 194.6V206.8C205.25 206.933 205.197 207.06 205.104 207.154C205.01 207.247 204.883 207.3 204.75 207.3Z" fill="#D1D3D4"/>
<path d="M186.73 168.07C186.597 168.07 186.47 168.017 186.376 167.924C186.283 167.83 186.23 167.703 186.23 167.57V137.57C186.23 137.437 186.283 137.31 186.376 137.217C186.47 137.123 186.597 137.07 186.73 137.07C186.863 137.07 186.99 137.123 187.084 137.217C187.177 137.31 187.23 137.437 187.23 137.57V167.57C187.23 167.703 187.177 167.83 187.084 167.924C186.99 168.017 186.863 168.07 186.73 168.07Z" fill="#D1D3D4"/>
<path d="M194.33 168.07C194.197 168.07 194.07 168.017 193.976 167.924C193.883 167.83 193.83 167.703 193.83 167.57V137.57C193.83 137.437 193.883 137.31 193.976 137.217C194.07 137.123 194.197 137.07 194.33 137.07C194.463 137.07 194.59 137.123 194.684 137.217C194.777 137.31 194.83 137.437 194.83 137.57V167.57C194.83 167.703 194.777 167.83 194.684 167.924C194.59 168.017 194.463 168.07 194.33 168.07Z" fill="#D1D3D4"/>
<path d="M201.93 168.07C201.797 168.07 201.67 168.017 201.576 167.924C201.483 167.83 201.43 167.703 201.43 167.57V137.57C201.43 137.437 201.483 137.31 201.576 137.217C201.67 137.123 201.797 137.07 201.93 137.07C202.063 137.07 202.19 137.123 202.284 137.217C202.377 137.31 202.43 137.437 202.43 137.57V167.57C202.43 167.703 202.377 167.83 202.284 167.924C202.19 168.017 202.063 168.07 201.93 168.07Z" fill="#D1D3D4"/>
<path d="M207.94 174.26H180.72C180.587 174.26 180.46 174.207 180.366 174.114C180.273 174.02 180.22 173.893 180.22 173.76C180.223 173.628 180.276 173.503 180.369 173.409C180.462 173.316 180.588 173.263 180.72 173.26H207.94C208.073 173.26 208.2 173.313 208.294 173.406C208.387 173.5 208.44 173.627 208.44 173.76C208.44 173.893 208.387 174.02 208.294 174.114C208.2 174.207 208.073 174.26 207.94 174.26Z" fill="#231F20"/>
<path d="M228.96 99.96C228.891 99.96 228.822 99.9462 228.759 99.9195C228.695 99.8927 228.637 99.8535 228.589 99.8042C228.54 99.7548 228.502 99.6963 228.477 99.6321C228.451 99.5678 228.439 99.4991 228.44 99.43V79.16C228.43 79.085 228.435 79.0086 228.457 78.936C228.479 78.8634 228.516 78.7963 228.565 78.7392C228.615 78.6821 228.676 78.6363 228.745 78.605C228.814 78.5736 228.889 78.5574 228.965 78.5574C229.041 78.5574 229.116 78.5736 229.184 78.605C229.253 78.6363 229.315 78.6821 229.365 78.7392C229.414 78.7963 229.451 78.8634 229.473 78.936C229.494 79.0086 229.5 79.085 229.49 79.16V99.43C229.49 99.4996 229.476 99.5685 229.45 99.6328C229.423 99.6971 229.384 99.7556 229.335 99.8048C229.285 99.854 229.227 99.893 229.163 99.9197C229.098 99.9463 229.03 99.96 228.96 99.96Z" fill="#231F20"/>
<path d="M280.21 172.78H258.53V208.86H280.21V172.78Z" fill="white"/>
<path d="M280.21 209.36H258.53C258.397 209.36 258.27 209.307 258.176 209.214C258.083 209.12 258.03 208.993 258.03 208.86V172.78C258.03 172.647 258.083 172.52 258.176 172.426C258.27 172.333 258.397 172.28 258.53 172.28H280.21C280.343 172.28 280.47 172.333 280.564 172.426C280.657 172.52 280.71 172.647 280.71 172.78V208.86C280.71 208.993 280.657 209.12 280.564 209.214C280.47 209.307 280.343 209.36 280.21 209.36ZM259.03 208.36H279.71V173.28H259.03V208.36Z" fill="#231F20"/>
<path d="M273.45 76.4401H249.24V208.86H273.45V76.4401Z" fill="white"/>
<path d="M273.45 209.36H249.24C249.107 209.36 248.98 209.307 248.886 209.214C248.793 209.12 248.74 208.993 248.74 208.86V76.4401C248.74 76.3075 248.793 76.1803 248.886 76.0865C248.98 75.9927 249.107 75.9401 249.24 75.9401H273.45C273.583 75.9401 273.71 75.9927 273.804 76.0865C273.897 76.1803 273.95 76.3075 273.95 76.4401V208.86C273.95 208.993 273.897 209.12 273.804 209.214C273.71 209.307 273.583 209.36 273.45 209.36ZM249.74 208.36H272.95V76.9401H249.74V208.36Z" fill="#231F20"/>
<path d="M253.04 63.2801C252.907 63.2801 252.78 63.2274 252.686 63.1336C252.593 63.0399 252.54 62.9127 252.54 62.7801V59.3301C252.54 59.1975 252.593 59.0703 252.686 58.9765C252.78 58.8828 252.907 58.8301 253.04 58.8301C253.172 58.8326 253.297 58.8861 253.391 58.9794C253.484 59.0726 253.537 59.1983 253.54 59.3301V62.7801C253.54 62.9127 253.487 63.0399 253.394 63.1336C253.3 63.2274 253.173 63.2801 253.04 63.2801Z" fill="#231F20"/>
<path d="M269.65 62.78L265.85 69.26H273.45L269.65 62.78Z" fill="white"/>
<path d="M273.45 69.7601H265.85C265.762 69.7596 265.677 69.7361 265.601 69.692C265.525 69.6479 265.463 69.5847 265.419 69.5088C265.376 69.4329 265.353 69.3468 265.353 69.2593C265.353 69.1718 265.376 69.0859 265.42 69.0101L269.22 62.5301C269.266 62.4578 269.33 62.3983 269.405 62.3571C269.48 62.3159 269.564 62.2943 269.65 62.2943C269.736 62.2943 269.82 62.3159 269.895 62.3571C269.97 62.3983 270.034 62.4578 270.08 62.5301L273.88 69.0101C273.924 69.0859 273.947 69.1718 273.947 69.2593C273.947 69.3468 273.924 69.4329 273.881 69.5088C273.837 69.5847 273.775 69.6479 273.699 69.692C273.623 69.7361 273.538 69.7596 273.45 69.7601ZM266.72 68.7601H272.58L269.65 63.7601L266.72 68.7601Z" fill="#231F20"/>
<path d="M269.65 63.2801C269.517 63.2801 269.39 63.2274 269.296 63.1336C269.203 63.0399 269.15 62.9127 269.15 62.7801V59.3301C269.15 59.1975 269.203 59.0703 269.296 58.9765C269.39 58.8828 269.517 58.8301 269.65 58.8301C269.783 58.8301 269.91 58.8828 270.004 58.9765C270.097 59.0703 270.15 59.1975 270.15 59.3301V62.7801C270.15 62.9127 270.097 63.0399 270.004 63.1336C269.91 63.2274 269.783 63.2801 269.65 63.2801Z" fill="#231F20"/>
<path d="M317.75 136.69H283.21V208.86H317.75V136.69Z" fill="white"/>
<path d="M317.75 209.36H283.21C283.077 209.36 282.95 209.307 282.856 209.214C282.763 209.12 282.71 208.993 282.71 208.86V136.68C282.71 136.547 282.763 136.42 282.856 136.327C282.95 136.233 283.077 136.18 283.21 136.18H317.75C317.883 136.18 318.01 136.233 318.104 136.327C318.197 136.42 318.25 136.547 318.25 136.68V208.85C318.251 208.917 318.239 208.983 318.215 209.044C318.19 209.106 318.154 209.163 318.107 209.21C318.061 209.258 318.005 209.295 317.944 209.321C317.882 209.347 317.816 209.36 317.75 209.36ZM283.75 208.36H317.29V137.19H283.71L283.75 208.36Z" fill="#231F20"/>
<path d="M314.37 128.15H289.97V136.69H314.37V128.15Z" fill="white"/>
<path d="M314.37 137.19H289.97C289.837 137.19 289.71 137.137 289.616 137.044C289.523 136.95 289.47 136.823 289.47 136.69V128.15C289.47 128.017 289.523 127.89 289.616 127.796C289.71 127.703 289.837 127.65 289.97 127.65H314.37C314.503 127.65 314.63 127.703 314.724 127.796C314.817 127.89 314.87 128.017 314.87 128.15V136.68C314.871 136.747 314.859 136.813 314.835 136.874C314.81 136.936 314.774 136.993 314.727 137.04C314.681 137.088 314.625 137.125 314.564 137.151C314.502 137.177 314.436 137.19 314.37 137.19ZM290.47 136.19H313.87V128.68H290.47V136.19Z" fill="#231F20"/>
<path d="M176.57 24.3501H153.34V28.2901H176.57V24.3501Z" fill="#231F20"/>
<path d="M176.57 28.8201H153.34C153.199 28.8201 153.065 28.7642 152.965 28.6648C152.866 28.5654 152.81 28.4306 152.81 28.2901V24.3501C152.81 24.2095 152.866 24.0747 152.965 23.9753C153.065 23.8759 153.199 23.8201 153.34 23.8201H176.57C176.711 23.8201 176.845 23.8759 176.945 23.9753C177.044 24.0747 177.1 24.2095 177.1 24.3501V28.2901C177.1 28.4306 177.044 28.5654 176.945 28.6648C176.845 28.7642 176.711 28.8201 176.57 28.8201ZM153.87 27.7601H176.04V24.8801H153.87V27.7601Z" fill="#231F20"/>
<path d="M158.48 9.01001H154.68V24.36H158.48V9.01001Z" fill="#231F20"/>
<path d="M158.48 24.8801H154.68C154.539 24.8801 154.405 24.8243 154.305 24.7249C154.206 24.6255 154.15 24.4907 154.15 24.3501V9.01011C154.15 8.86954 154.206 8.73473 154.305 8.63534C154.405 8.53594 154.539 8.4801 154.68 8.4801H158.48C158.621 8.4801 158.755 8.53594 158.855 8.63534C158.954 8.73473 159.01 8.86954 159.01 9.01011V24.3501C159.01 24.4907 158.954 24.6255 158.855 24.7249C158.755 24.8243 158.621 24.8801 158.48 24.8801ZM155.21 23.8201H157.95V9.5301H155.21V23.8201Z" fill="#231F20"/>
<path d="M175.23 9.01001H171.43V24.36H175.23V9.01001Z" fill="#231F20"/>
<path d="M175.23 24.8801H171.43C171.289 24.8801 171.155 24.8243 171.055 24.7249C170.956 24.6255 170.9 24.4907 170.9 24.3501V9.01011C170.9 8.86954 170.956 8.73473 171.055 8.63534C171.155 8.53594 171.289 8.4801 171.43 8.4801H175.23C175.371 8.4801 175.505 8.53594 175.605 8.63534C175.704 8.73473 175.76 8.86954 175.76 9.01011V24.3501C175.76 24.4907 175.704 24.6255 175.605 24.7249C175.505 24.8243 175.371 24.8801 175.23 24.8801ZM171.96 23.8201H174.71V9.5301H171.96V23.8201Z" fill="#231F20"/>
<path d="M270.1 85.1001H252.62C252.487 85.1001 252.36 85.0474 252.266 84.9537C252.173 84.8599 252.12 84.7327 252.12 84.6001C252.12 84.4675 252.173 84.3403 252.266 84.2466C252.36 84.1528 252.487 84.1001 252.62 84.1001H270.1C270.233 84.1001 270.36 84.1528 270.454 84.2466C270.547 84.3403 270.6 84.4675 270.6 84.6001C270.6 84.7327 270.547 84.8599 270.454 84.9537C270.36 85.0474 270.233 85.1001 270.1 85.1001Z" fill="#D1D3D4"/>
<path d="M270.1 89.8H252.62C252.487 89.8 252.36 89.7474 252.266 89.6536C252.173 89.5598 252.12 89.4327 252.12 89.3C252.12 89.1674 252.173 89.0403 252.266 88.9465C252.36 88.8527 252.487 88.8 252.62 88.8H270.1C270.233 88.8 270.36 88.8527 270.454 88.9465C270.547 89.0403 270.6 89.1674 270.6 89.3C270.6 89.4327 270.547 89.5598 270.454 89.6536C270.36 89.7474 270.233 89.8 270.1 89.8Z" fill="#D1D3D4"/>
<path d="M270.1 94.4901H252.62C252.487 94.4901 252.36 94.4374 252.266 94.3437C252.173 94.2499 252.12 94.1227 252.12 93.9901C252.12 93.8575 252.173 93.7303 252.266 93.6366C252.36 93.5428 252.487 93.4901 252.62 93.4901H270.1C270.233 93.4901 270.36 93.5428 270.454 93.6366C270.547 93.7303 270.6 93.8575 270.6 93.9901C270.6 94.1227 270.547 94.2499 270.454 94.3437C270.36 94.4374 270.233 94.4901 270.1 94.4901Z" fill="#D1D3D4"/>
<path d="M270.1 99.1801H252.62C252.487 99.1801 252.36 99.1274 252.266 99.0336C252.173 98.9398 252.12 98.8127 252.12 98.6801C252.12 98.5474 252.173 98.4203 252.266 98.3265C252.36 98.2327 252.487 98.1801 252.62 98.1801H270.1C270.233 98.1801 270.36 98.2327 270.454 98.3265C270.547 98.4203 270.6 98.5474 270.6 98.6801C270.6 98.8127 270.547 98.9398 270.454 99.0336C270.36 99.1274 270.233 99.1801 270.1 99.1801Z" fill="#D1D3D4"/>
<path d="M270.1 103.87H252.62C252.487 103.87 252.36 103.817 252.266 103.724C252.173 103.63 252.12 103.503 252.12 103.37C252.12 103.237 252.173 103.11 252.266 103.016C252.36 102.923 252.487 102.87 252.62 102.87H270.1C270.233 102.87 270.36 102.923 270.454 103.016C270.547 103.11 270.6 103.237 270.6 103.37C270.6 103.503 270.547 103.63 270.454 103.724C270.36 103.817 270.233 103.87 270.1 103.87Z" fill="#D1D3D4"/>
<path d="M270.1 108.57H252.62C252.487 108.57 252.36 108.517 252.266 108.424C252.173 108.33 252.12 108.203 252.12 108.07C252.12 107.937 252.173 107.81 252.266 107.717C252.36 107.623 252.487 107.57 252.62 107.57H270.1C270.233 107.57 270.36 107.623 270.454 107.717C270.547 107.81 270.6 107.937 270.6 108.07C270.6 108.203 270.547 108.33 270.454 108.424C270.36 108.517 270.233 108.57 270.1 108.57Z" fill="#D1D3D4"/>
<path d="M270.1 113.26H252.62C252.487 113.26 252.36 113.207 252.266 113.114C252.173 113.02 252.12 112.893 252.12 112.76C252.12 112.627 252.173 112.5 252.266 112.406C252.36 112.313 252.487 112.26 252.62 112.26H270.1C270.233 112.26 270.36 112.313 270.454 112.406C270.547 112.5 270.6 112.627 270.6 112.76C270.6 112.893 270.547 113.02 270.454 113.114C270.36 113.207 270.233 113.26 270.1 113.26Z" fill="#D1D3D4"/>
<path d="M270.1 117.95H252.62C252.487 117.95 252.36 117.897 252.266 117.804C252.173 117.71 252.12 117.583 252.12 117.45C252.12 117.317 252.173 117.19 252.266 117.097C252.36 117.003 252.487 116.95 252.62 116.95H270.1C270.233 116.95 270.36 117.003 270.454 117.097C270.547 117.19 270.6 117.317 270.6 117.45C270.6 117.583 270.547 117.71 270.454 117.804C270.36 117.897 270.233 117.95 270.1 117.95Z" fill="#D1D3D4"/>
<path d="M270.1 122.68H252.62C252.487 122.68 252.36 122.627 252.266 122.534C252.173 122.44 252.12 122.313 252.12 122.18C252.12 122.047 252.173 121.92 252.266 121.827C252.36 121.733 252.487 121.68 252.62 121.68H270.1C270.233 121.68 270.36 121.733 270.454 121.827C270.547 121.92 270.6 122.047 270.6 122.18C270.6 122.313 270.547 122.44 270.454 122.534C270.36 122.627 270.233 122.68 270.1 122.68Z" fill="#D1D3D4"/>
<path d="M270.1 127.34H252.62C252.487 127.34 252.36 127.287 252.266 127.194C252.173 127.1 252.12 126.973 252.12 126.84C252.12 126.707 252.173 126.58 252.266 126.487C252.36 126.393 252.487 126.34 252.62 126.34H270.1C270.233 126.34 270.36 126.393 270.454 126.487C270.547 126.58 270.6 126.707 270.6 126.84C270.6 126.973 270.547 127.1 270.454 127.194C270.36 127.287 270.233 127.34 270.1 127.34Z" fill="#D1D3D4"/>
<path d="M270.1 132.03H252.62C252.487 132.03 252.36 131.977 252.266 131.884C252.173 131.79 252.12 131.663 252.12 131.53C252.12 131.397 252.173 131.27 252.266 131.176C252.36 131.083 252.487 131.03 252.62 131.03H270.1C270.233 131.03 270.36 131.083 270.454 131.176C270.547 131.27 270.6 131.397 270.6 131.53C270.6 131.663 270.547 131.79 270.454 131.884C270.36 131.977 270.233 132.03 270.1 132.03Z" fill="#D1D3D4"/>
<path d="M270.1 136.68H252.62C252.487 136.68 252.36 136.627 252.266 136.534C252.173 136.44 252.12 136.313 252.12 136.18C252.12 136.047 252.173 135.92 252.266 135.827C252.36 135.733 252.487 135.68 252.62 135.68H270.1C270.233 135.68 270.36 135.733 270.454 135.827C270.547 135.92 270.6 136.047 270.6 136.18C270.6 136.313 270.547 136.44 270.454 136.534C270.36 136.627 270.233 136.68 270.1 136.68Z" fill="#D1D3D4"/>
<path d="M270.1 141.42H252.62C252.487 141.42 252.36 141.367 252.266 141.274C252.173 141.18 252.12 141.053 252.12 140.92C252.12 140.787 252.173 140.66 252.266 140.566C252.36 140.473 252.487 140.42 252.62 140.42H270.1C270.233 140.42 270.36 140.473 270.454 140.566C270.547 140.66 270.6 140.787 270.6 140.92C270.6 141.053 270.547 141.18 270.454 141.274C270.36 141.367 270.233 141.42 270.1 141.42Z" fill="#D1D3D4"/>
<path d="M270.1 146.11H252.62C252.487 146.11 252.36 146.057 252.266 145.964C252.173 145.87 252.12 145.743 252.12 145.61C252.12 145.477 252.173 145.35 252.266 145.256C252.36 145.163 252.487 145.11 252.62 145.11H270.1C270.233 145.11 270.36 145.163 270.454 145.256C270.547 145.35 270.6 145.477 270.6 145.61C270.6 145.743 270.547 145.87 270.454 145.964C270.36 146.057 270.233 146.11 270.1 146.11Z" fill="#D1D3D4"/>
<path d="M270.1 150.8H252.62C252.487 150.8 252.36 150.747 252.266 150.654C252.173 150.56 252.12 150.433 252.12 150.3C252.12 150.167 252.173 150.04 252.266 149.947C252.36 149.853 252.487 149.8 252.62 149.8H270.1C270.233 149.8 270.36 149.853 270.454 149.947C270.547 150.04 270.6 150.167 270.6 150.3C270.6 150.433 270.547 150.56 270.454 150.654C270.36 150.747 270.233 150.8 270.1 150.8Z" fill="#D1D3D4"/>
<path d="M270.1 155.49H252.62C252.487 155.49 252.36 155.437 252.266 155.344C252.173 155.25 252.12 155.123 252.12 154.99C252.12 154.858 252.173 154.73 252.266 154.637C252.36 154.543 252.487 154.49 252.62 154.49H270.1C270.233 154.49 270.36 154.543 270.454 154.637C270.547 154.73 270.6 154.858 270.6 154.99C270.6 155.123 270.547 155.25 270.454 155.344C270.36 155.437 270.233 155.49 270.1 155.49Z" fill="#D1D3D4"/>
<path d="M270.1 160.19H252.62C252.487 160.19 252.36 160.137 252.266 160.044C252.173 159.95 252.12 159.823 252.12 159.69C252.12 159.557 252.173 159.43 252.266 159.337C252.36 159.243 252.487 159.19 252.62 159.19H270.1C270.233 159.19 270.36 159.243 270.454 159.337C270.547 159.43 270.6 159.557 270.6 159.69C270.6 159.823 270.547 159.95 270.454 160.044C270.36 160.137 270.233 160.19 270.1 160.19Z" fill="#D1D3D4"/>
<path d="M270.1 164.88H252.62C252.487 164.88 252.36 164.827 252.266 164.734C252.173 164.64 252.12 164.513 252.12 164.38C252.12 164.247 252.173 164.12 252.266 164.026C252.36 163.933 252.487 163.88 252.62 163.88H270.1C270.233 163.88 270.36 163.933 270.454 164.026C270.547 164.12 270.6 164.247 270.6 164.38C270.6 164.513 270.547 164.64 270.454 164.734C270.36 164.827 270.233 164.88 270.1 164.88Z" fill="#D1D3D4"/>
<path d="M270.1 169.57H252.62C252.487 169.57 252.36 169.517 252.266 169.424C252.173 169.33 252.12 169.203 252.12 169.07C252.12 168.937 252.173 168.81 252.266 168.717C252.36 168.623 252.487 168.57 252.62 168.57H270.1C270.233 168.57 270.36 168.623 270.454 168.717C270.547 168.81 270.6 168.937 270.6 169.07C270.6 169.203 270.547 169.33 270.454 169.424C270.36 169.517 270.233 169.57 270.1 169.57Z" fill="#D1D3D4"/>
<path d="M270.1 174.26H252.62C252.487 174.26 252.36 174.207 252.266 174.114C252.173 174.02 252.12 173.893 252.12 173.76C252.12 173.627 252.173 173.5 252.266 173.406C252.36 173.313 252.487 173.26 252.62 173.26H270.1C270.233 173.26 270.36 173.313 270.454 173.406C270.547 173.5 270.6 173.627 270.6 173.76C270.6 173.893 270.547 174.02 270.454 174.114C270.36 174.207 270.233 174.26 270.1 174.26Z" fill="#D1D3D4"/>
<path d="M270.1 178.96H252.62C252.487 178.96 252.36 178.907 252.266 178.814C252.173 178.72 252.12 178.593 252.12 178.46C252.12 178.327 252.173 178.2 252.266 178.107C252.36 178.013 252.487 177.96 252.62 177.96H270.1C270.233 177.96 270.36 178.013 270.454 178.107C270.547 178.2 270.6 178.327 270.6 178.46C270.6 178.593 270.547 178.72 270.454 178.814C270.36 178.907 270.233 178.96 270.1 178.96Z" fill="#D1D3D4"/>
<path d="M270.1 183.68H252.62C252.487 183.68 252.36 183.627 252.266 183.534C252.173 183.44 252.12 183.313 252.12 183.18C252.12 183.047 252.173 182.92 252.266 182.827C252.36 182.733 252.487 182.68 252.62 182.68H270.1C270.233 182.68 270.36 182.733 270.454 182.827C270.547 182.92 270.6 183.047 270.6 183.18C270.6 183.313 270.547 183.44 270.454 183.534C270.36 183.627 270.233 183.68 270.1 183.68Z" fill="#D1D3D4"/>
<path d="M270.1 188.34H252.62C252.487 188.34 252.36 188.287 252.266 188.194C252.173 188.1 252.12 187.973 252.12 187.84C252.12 187.707 252.173 187.58 252.266 187.487C252.36 187.393 252.487 187.34 252.62 187.34H270.1C270.233 187.34 270.36 187.393 270.454 187.487C270.547 187.58 270.6 187.707 270.6 187.84C270.6 187.973 270.547 188.1 270.454 188.194C270.36 188.287 270.233 188.34 270.1 188.34Z" fill="#D1D3D4"/>
<path d="M270.1 193.04H252.62C252.487 193.04 252.36 192.987 252.266 192.894C252.173 192.8 252.12 192.673 252.12 192.54C252.12 192.407 252.173 192.28 252.266 192.186C252.36 192.093 252.487 192.04 252.62 192.04H270.1C270.233 192.04 270.36 192.093 270.454 192.186C270.547 192.28 270.6 192.407 270.6 192.54C270.6 192.673 270.547 192.8 270.454 192.894C270.36 192.987 270.233 193.04 270.1 193.04Z" fill="#D1D3D4"/>
<path d="M270.1 197.73H252.62C252.487 197.73 252.36 197.677 252.266 197.584C252.173 197.49 252.12 197.363 252.12 197.23C252.12 197.097 252.173 196.97 252.266 196.877C252.36 196.783 252.487 196.73 252.62 196.73H270.1C270.233 196.73 270.36 196.783 270.454 196.877C270.547 196.97 270.6 197.097 270.6 197.23C270.6 197.363 270.547 197.49 270.454 197.584C270.36 197.677 270.233 197.73 270.1 197.73Z" fill="#D1D3D4"/>
<path d="M292.23 204.05C292.097 204.05 291.97 203.997 291.876 203.904C291.783 203.81 291.73 203.683 291.73 203.55V142.01C291.73 141.877 291.783 141.75 291.876 141.656C291.97 141.563 292.097 141.51 292.23 141.51C292.363 141.51 292.49 141.563 292.584 141.656C292.677 141.75 292.73 141.877 292.73 142.01V203.55C292.727 203.682 292.674 203.808 292.581 203.901C292.487 203.994 292.362 204.047 292.23 204.05Z" fill="#D1D3D4"/>
<path d="M300.48 204.05C300.347 204.05 300.22 203.997 300.126 203.904C300.033 203.81 299.98 203.683 299.98 203.55V142.01C299.98 141.877 300.033 141.75 300.126 141.656C300.22 141.563 300.347 141.51 300.48 141.51C300.613 141.51 300.74 141.563 300.834 141.656C300.927 141.75 300.98 141.877 300.98 142.01V203.55C300.98 203.683 300.927 203.81 300.834 203.904C300.74 203.997 300.613 204.05 300.48 204.05Z" fill="#D1D3D4"/>
<path d="M308.73 204.05C308.598 204.047 308.472 203.994 308.379 203.901C308.286 203.808 308.233 203.682 308.23 203.55V142.01C308.23 141.877 308.283 141.75 308.376 141.656C308.47 141.563 308.597 141.51 308.73 141.51C308.863 141.51 308.99 141.563 309.084 141.656C309.177 141.75 309.23 141.877 309.23 142.01V203.55C309.23 203.683 309.177 203.81 309.084 203.904C308.99 203.997 308.863 204.05 308.73 204.05Z" fill="#D1D3D4"/>
<path d="M125.97 65.2701C107.237 69.6823 87.8468 70.5674 68.79 67.8801C64.95 67.3301 60.93 66.6601 57.3 68.0301C54.64 69.0301 52.5 71.0301 50.13 72.5901C45.1622 75.8417 39.2026 77.2271 33.31 76.5001C22.42 75.1201 11.77 79.5601 0.5 81.6001V24.2301C3.88043 24.0029 7.27334 24.4168 10.5 25.4501C14.6 26.9501 18.23 30.5901 18.34 34.9501C18.45 39.3101 15.81 45.4801 19.91 47.1601C29.3563 42.6905 39.4517 39.7473 49.82 38.4401C56.02 37.6601 62.82 37.6001 67.97 41.1001C73.12 44.6001 75.41 52.8501 70.92 57.2001C84.78 62.6401 99.71 68.2001 114.21 64.8001C118.2 63.8701 122.97 62.4601 125.97 65.2701Z" fill="white"/>
</svg>
